#!OML:ASF G:\JayActor3\Patient Classification 1\Patient 1\Session 6\male.ASF
:FULLY-SPECIFIED
:DEGREES
1341
root 12.0559 15.4004 -22.6452 374.557 -72.3023 -361.015
lowerback 33.5699 0.163119 3.71397
upperback 15.825 -0.281089 -0.498515
thorax 0.210624 -0.479929 -2.39884
lowerneck 2.63974 6.87292 5.56971
upperneck -15.9476 8.35625 -10.4397
head -4.46861 4.42605 -4.491
rclavicle 6.61953e-014 -2.16675e-014
rhumerus -20.1481 7.7266 -81.2665
rradius 57.6843
rwrist -3.49944
rhand -25.1819 -8.90256
rfingers 7.12502
rthumb 1.33592 -38.8781
lclavicle 6.61953e-014 -2.16675e-014
lhumerus 15.2814 -22.0892 62.5316
lradius 67.58
lwrist 32.013
lhand -24.596 5.67552
lfingers 7.12502
lthumb 1.90179 35.6468
rfemur -55.5141 -4.95074 20.5378
rtibia 57.3463
rfoot -18.6588 -17.3422
rtoes -13.4279
lfemur -41.3103 13.4559 -24.4005
ltibia 53.0295
lfoot -23.5916 9.26828
ltoes -4.3626
1342
root 11.9957 15.3847 -22.662 374.039 -72.0837 -360.563
lowerback 33.5841 0.0883108 3.7839
upperback 15.8984 -0.358037 -0.482673
thorax 0.282497 -0.513416 -2.39756
lowerneck 2.72809 6.85666 5.57656
upperneck -15.9967 8.34122 -10.4026
head -4.50146 4.41808 -4.48638
rclavicle 1.47101e-014 6.85807e-015
rhumerus -20.2384 7.7265 -81.2979
rradius 57.7713
rwrist -3.49266
rhand -25.1377 -8.94286
rfingers 7.12502
rthumb 1.37853 -38.9182
lclavicle 1.47101e-014 6.85807e-015
lhumerus 14.8993 -22.2714 62.6536
lradius 67.5426
lwrist 31.9897
lhand -24.301 5.7064
lfingers 7.12502
lthumb 2.18664 35.6749
rfemur -55.3335 -4.88164 20.4084
rtibia 57.8426
rfoot -19.4469 -17.378
rtoes -11.4946
lfemur -41.1036 13.4172 -24.3225
ltibia 53.218
lfoot -23.8064 9.0455
ltoes -4.42569
1343
root 11.9344 15.3683 -22.6796 373.438 -71.873 -360.023
lowerback 33.5737 0.0221825 3.82347
upperback 15.9714 -0.43305 -0.47211
thorax 0.362012 -0.546896 -2.38673
lowerneck 2.8132 6.84187 5.57788
upperneck -16.0758 8.32466 -10.3735
head -4.5428 4.40996 -4.48432
rclavicle 1.98785e-015 -4.53229e-014
rhumerus -20.3316 7.73467 -81.3395
rradius 57.8105
rwrist -3.43516
rhand -25.0699 -8.99449
rfingers 7.12502
rthumb 1.4441 -38.9694
lclavicle 1.98785e-015 -4.53229e-014
lhumerus 14.4831 -22.4391 62.7968
lradius 67.4418
lwrist 31.9363
lhand -24.0401 5.74489
lfingers 7.12502
lthumb 2.43867 35.7107
rfemur -55.0983 -4.79969 20.2382
rtibia 58.2585
rfoot -19.9247 -17.2389
rtoes -9.51737
lfemur -40.891 13.3928 -24.2698
ltibia 53.404
lfoot -24.0202 8.77956
ltoes -4.47801
1344
root 11.873 15.3557 -22.6974 372.778 -71.6823 -359.425
lowerback 33.5627 -0.0338196 3.838
upperback 16.0363 -0.502024 -0.468969
thorax 0.432881 -0.578438 -2.37219
lowerneck 2.88757 6.82862 5.57834
upperneck -16.1693 8.30811 -10.3485
head -4.58654 4.40177 -4.48347
rclavicle 2.62396e-014 1.50082e-014
rhumerus -20.4263 7.75331 -81.3916
rradius 57.7977
rwrist -3.34198
rhand -25.064 -9.02585
rfingers 7.12502
rthumb 1.44973 -39.0007
lclavicle 2.62396e-014 1.50082e-014
lhumerus 14.0316 -22.5915 62.9642
lradius 67.268
lwrist 31.8397
lhand -23.8224 5.77888
lfingers 7.12502
lthumb 2.64883 35.7422
rfemur -54.8391 -4.74889 20.0703
rtibia 58.5537
rfoot -20.018 -17.0621
rtoes -7.51222
lfemur -40.6388 13.3859 -24.2353
ltibia 53.5329
lfoot -24.2032 8.48118
ltoes -4.53663
1345
root 11.8121 15.3503 -22.7146 372.08 -71.5188 -358.805
lowerback 33.5831 -0.0805569 3.8409
upperback 16.0882 -0.561488 -0.471705
thorax 0.478698 -0.606274 -2.35983
lowerneck 2.94148 6.81539 5.57117
upperneck -16.2589 8.29075 -10.3183
head -4.62637 4.39266 -4.47868
rclavicle -4.31363e-014 -1.66979e-014
rhumerus -20.5205 7.78204 -81.4465
rradius 57.7285
rwrist -3.2223
rhand -25.086 -9.05029
rfingers 7.12502
rthumb 1.42855 -39.0253
lclavicle -4.31363e-014 -1.66979e-014
lhumerus 13.5405 -22.7368 63.1598
lradius 67.0262
lwrist 31.6916
lhand -23.6633 5.81998
lfingers 7.12502
lthumb 2.80253 35.7813
rfemur -54.5764 -4.73909 19.9299
rtibia 58.757
rfoot -19.9284 -16.9756
rtoes -5.66215
lfemur -40.3129 13.3956 -24.2059
ltibia 53.5739
lfoot -24.3425 8.16436
ltoes -4.62371
1346
root 11.7518 15.3512 -22.7302 371.33 -71.3863 -358.162
lowerback 33.6558 -0.121392 3.83556
upperback 16.1279 -0.614807 -0.481778
thorax 0.492958 -0.632235 -2.35159
lowerneck 2.97283 6.80202 5.56338
upperneck -16.3349 8.27222 -10.2915
head -4.65817 4.38261 -4.47326
rclavicle 1.41137e-014 1.98785e-016
rhumerus -20.6109 7.83171 -81.4987
rradius 57.6076
rwrist -3.08505
rhand -25.148 -9.06629
rfingers 7.12502
rthumb 1.36866 -39.0416
lclavicle 1.41137e-014 1.98785e-016
lhumerus 13.0165 -22.869 63.3831
lradius 66.7052
lwrist 31.4784
lhand -23.562 5.8534
lfingers 7.12502
lthumb 2.90031 35.8134
rfemur -54.3264 -4.78041 19.8166
rtibia 58.932
rfoot -19.7704 -16.995
rtoes -4.1368
lfemur -39.9004 13.4191 -24.1807
ltibia 53.5344
lfoot -24.4378 7.8482
ltoes -4.76826
1347
root 11.6919 15.355 -22.7443 370.559 -71.2807 -357.528
lowerback 33.7849 -0.158371 3.83284
upperback 16.1514 -0.660687 -0.496186
thorax 0.470069 -0.655212 -2.35023
lowerneck 2.99477 6.78695 5.54809
upperneck -16.4015 8.25162 -10.2577
head -4.68637 4.37121 -4.46358
rclavicle -2.62396e-014 2.46493e-014
rhumerus -20.684 7.89131 -81.5442
rradius 57.4267
rwrist -2.94154
rhand -25.1708 -9.09314
rfingers 7.12502
rthumb 1.34658 -39.0686
lclavicle -2.62396e-014 2.46493e-014
lhumerus 12.4598 -22.9986 63.6299
lradius 66.3108
lwrist 31.2007
lhand -23.5161 5.87963
lfingers 7.12502
lthumb 2.94468 35.839
rfemur -54.0901 -4.85444 19.7302
rtibia 59.1224
rfoot -19.6388 -17.1264
rtoes -3.11207
lfemur -39.4263 13.4567 -24.145
ltibia 53.4566
lfoot -24.5164 7.50167
ltoes -4.88284
1348
root 11.6318 15.3588 -22.7572 369.808 -71.1962 -356.924
lowerback 33.9255 -0.189406 3.83367
upperback 16.1664 -0.697452 -0.50889
thorax 0.434739 -0.673907 -2.3512
lowerneck 3.01606 6.76976 5.52369
upperneck -16.4668 8.22809 -10.2176
head -4.7151 4.3584 -4.45036
rclavicle -2.62396e-014 4.39314e-014
rhumerus -20.7324 7.95421 -81.5781
rradius 57.1932
rwrist -2.79606
rhand -25.145 -9.11644
rfingers 7.12502
rthumb 1.37153 -39.0918
lclavicle -2.62396e-014 4.39314e-014
lhumerus 11.8861 -23.1228 63.8957
lradius 65.8433
lwrist 30.8635
lhand -23.509 5.89277
lfingers 7.12502
lthumb 2.95152 35.8521
rfemur -53.8652 -4.92584 19.657
rtibia 59.348
rfoot -19.6442 -17.297
rtoes -2.57979
lfemur -38.94 13.5081 -24.0951
ltibia 53.3867
lfoot -24.5918 7.12593
ltoes -4.96526
1349
root 11.5707 15.3605 -22.7695 369.115 -71.1176 -356.363
lowerback 34.0361 -0.216488 3.84047
upperback 16.174 -0.726707 -0.514522
thorax 0.402589 -0.688399 -2.35042
lowerneck 3.04116 6.74919 5.49406
upperneck -16.5328 8.19952 -10.177
head -4.74535 4.34339 -4.43618
rclavicle 1.63003e-014 -4.23411e-014
rhumerus -20.7538 8.01069 -81.5995
rradius 56.9157
rwrist -2.65997
rhand -25.0734 -9.12803
rfingers 7.12502
rthumb 1.44063 -39.1029
lclavicle 1.63003e-014 -4.23411e-014
lhumerus 11.3057 -23.2456 64.174
lradius 65.3062
lwrist 30.4874
lhand -23.5213 5.89771
lfingers 7.12502
lthumb 2.93963 35.8572
rfemur -53.643 -4.97222 19.5818
rtibia 59.6091
rfoot -19.839 -17.4016
rtoes -2.3272
lfemur -38.4943 13.5738 -24.0316
ltibia 53.3639
lfoot -24.6722 6.71674
ltoes -5.02394
1350
root 11.5084 15.3602 -22.7819 368.534 -71.0327 -355.882
lowerback 34.086 -0.242101 3.86034
upperback 16.1742 -0.749273 -0.507896
thorax 0.384441 -0.698355 -2.34649
lowerneck 3.0668 6.72902 5.46781
upperneck -16.5948 8.17128 -10.1416
head -4.77401 4.32869 -4.42402
rclavicle 1.27222e-014 -2.98177e-015
rhumerus -20.746 8.0538 -81.6117
rradius 56.6008
rwrist -2.5323
rhand -24.9647 -9.1159
rfingers 7.12502
rthumb 1.54562 -39.09
lclavicle 1.27222e-014 -2.98177e-015
lhumerus 10.7219 -23.3684 64.4568
lradius 64.7174
lwrist 30.1026
lhand -23.5227 5.90835
lfingers 7.12502
lthumb 2.93836 35.8679
rfemur -53.4245 -4.97627 19.5075
rtibia 59.8875
rfoot -20.1831 -17.4046
rtoes -2.21539
lfemur -38.1224 13.6579 -23.9469
ltibia 53.4008
lfoot -24.7494 6.28517
ltoes -5.1162
1351
root 11.4447 15.3587 -22.7944 368.099 -70.9305 -355.504
lowerback 34.0585 -0.272248 3.90345
upperback 16.1683 -0.769642 -0.486369
thorax 0.387268 -0.705175 -2.34104
lowerneck 3.08074 6.70896 5.44522
upperneck -16.6413 8.1432 -10.1104
head -4.79552 4.31385 -4.41252
rclavicle -6.36111e-015 3.8763e-014
rhumerus -20.7158 8.08356 -81.6177
rradius 56.2667
rwrist -2.41322
rhand -24.8307 -9.08951
rfingers 7.12502
rthumb 1.67506 -39.0627
lclavicle -6.36111e-015 3.8763e-014
lhumerus 10.1387 -23.4888 64.7401
lradius 64.0947
lwrist 29.7393
lhand -23.4975 5.94287
lfingers 7.12502
lthumb 2.96268 35.902
rfemur -53.2232 -4.95568 19.4506
rtibia 60.1606
rfoot -20.5526 -17.402
rtoes -2.23755
lfemur -37.839 13.7598 -23.8395
ltibia 53.4933
lfoot -24.8027 5.86365
ltoes -5.36086
